<?xml version="1.0" standalone="no"?>
<!DOCTYPE svg PUBLIC "-//W3C//DTD SVG 20010904//EN"
 "http://www.w3.org/TR/2001/REC-SVG-20010904/DTD/svg10.dtd">
<svg version="1.0" xmlns="http://www.w3.org/2000/svg"
 width="800.000000pt" height="800.000000pt" viewBox="0 0 800.000000 800.000000"
 preserveAspectRatio="xMidYMid meet">
<metadata>
Created by potrace 1.14, written by Peter Selinger 2001-2017
</metadata>
<g transform="translate(0.000000,800.000000) scale(0.100000,-0.100000)"
fill="#000000" stroke="none">
<path d="M1500 4950 l0 -240 528 -1 c290 -1 539 0 554 1 14 1 29 -4 33 -10 5
-8 11 -8 21 1 10 8 14 8 14 0 0 -6 5 -11 11 -11 5 0 7 5 4 10 -3 6 1 10 10 10
10 0 13 -5 9 -12 -5 -9 -2 -9 9 1 13 10 17 10 17 1 0 -10 3 -10 15 0 11 9 15
9 15 1 0 -9 5 -9 22 0 18 10 20 9 14 -7 -6 -16 -5 -16 15 2 12 10 19 13 14 5
-6 -10 -2 -12 14 -6 15 4 20 2 18 -7 -2 -7 -2 -10 0 -5 3 4 9 5 14 2 5 -4 6 2
2 12 -6 16 -5 17 12 3 21 -17 24 -17 36 2 7 10 9 10 9 0 0 -7 5 -10 10 -7 6 3
10 -2 10 -11 0 -10 3 -15 6 -11 3 3 17 2 30 -3 18 -7 22 -6 18 5 -3 7 -12 11
-19 9 -7 -3 -16 0 -21 7 -4 8 -3 10 5 5 6 -4 19 -2 28 6 12 9 15 10 9 0 -4 -7
-1 -15 8 -18 9 -3 13 -11 9 -17 -3 -6 -1 -7 6 -3 9 6 9 11 -1 24 -11 13 -10
14 7 5 11 -6 26 -8 33 -6 11 4 17 -9 13 -30 -1 -5 3 -6 8 -3 5 4 8 15 6 26 -4
19 -3 19 20 3 12 -10 21 -21 19 -24 -2 -4 6 -6 19 -5 13 1 21 -4 19 -12 -1 -8
2 -11 8 -7 8 5 7 11 -1 21 -9 11 -9 14 1 14 8 0 10 3 7 6 -4 4 -13 1 -22 -6
-10 -8 -15 -9 -15 -1 0 6 5 12 10 13 29 4 35 2 35 -12 0 -15 11 -16 88 -7 31
4 37 2 33 -10 -3 -8 -1 -11 4 -8 6 3 10 2 10 -4 0 -7 35 -8 69 -2 3 1 -1 7 -7
13 -10 10 -15 10 -23 -2 -9 -13 -10 -13 -6 0 6 22 53 19 49 -3 -2 -9 2 -17 8
-17 5 0 10 6 10 14 0 8 7 17 16 20 13 5 14 3 6 -6 -7 -9 -6 -17 4 -26 8 -7 14
-8 14 -3 0 5 11 8 25 5 19 -3 25 0 26 13 0 16 2 15 8 -2 5 -11 7 -23 4 -27 -2
-5 1 -8 7 -8 7 0 10 6 7 14 -4 10 0 12 14 9 10 -3 17 -9 14 -12 -2 -4 2 -8 9
-8 8 0 12 9 10 21 -3 12 -2 15 2 8 3 -7 15 -17 27 -23 18 -9 20 -9 10 2 -7 7
-13 18 -13 24 0 5 5 3 10 -5 9 -13 11 -13 20 0 7 11 8 6 5 -18 -3 -27 -1 -31
10 -22 7 6 11 21 8 33 -4 20 -3 20 10 -3 9 -14 13 -29 10 -34 -4 -5 -1 -6 6
-2 7 5 10 14 7 21 -2 7 1 16 9 19 10 3 12 0 8 -11 -5 -12 -2 -13 13 -6 23 12
47 6 38 -9 -5 -7 -2 -8 6 -3 10 6 9 11 -5 22 -11 7 -15 13 -11 13 5 0 3 7 -4
15 -15 18 1 20 19 3 8 -7 6 -1 -4 14 -9 15 -22 25 -29 21 -6 -3 -6 -1 1 7 11
12 15 11 28 -6 12 -16 14 -16 9 -1 -5 13 -1 17 15 17 21 0 21 3 21 240 l0 240
-1150 0 -1150 0 0 -240z m1703 -275 c-3 -9 -8 -14 -10 -11 -3 3 -2 9 2 15 9
16 15 13 8 -4z m264 -18 c0 -8 -6 -14 -14 -14 -9 0 -10 4 -2 14 6 7 12 13 14
13 1 0 2 -6 2 -13z m-137 -7 c0 -5 -2 -10 -4 -10 -3 0 -8 5 -11 10 -3 6 -1 10
4 10 6 0 11 -4 11 -10z"/>
<path d="M4200 4950 l0 -240 498 -1 c273 -1 512 0 530 1 18 1 40 -4 49 -12 9
-7 14 -8 10 -2 -4 7 2 12 18 12 16 0 22 -5 18 -12 -4 -6 1 -5 10 3 14 11 17
11 17 0 0 -11 2 -11 10 1 8 12 10 12 10 1 0 -10 3 -11 14 -2 10 9 16 8 26 -4
7 -8 20 -15 29 -14 11 0 9 3 -6 9 -30 12 -29 18 2 16 14 0 25 -5 25 -9 0 -5 5
-5 10 -2 6 4 23 8 38 11 l27 4 -25 -14 c-23 -13 -21 -14 24 -9 39 5 47 3 41
-7 -5 -9 -4 -11 3 -6 7 4 12 14 12 22 0 8 5 14 11 14 5 0 7 -5 3 -12 -5 -7 -2
-9 9 -5 12 4 14 2 10 -11 -6 -14 -4 -15 8 -5 12 10 20 9 40 -4 l24 -17 -20 23
c-14 16 -15 22 -5 19 8 -2 20 -12 27 -23 12 -19 12 -19 13 5 0 14 4 20 8 14 4
-5 21 -9 39 -8 17 0 37 -2 44 -7 7 -4 -6 -6 -29 -4 -40 3 -54 -6 -32 -20 6 -3
10 -2 10 4 0 5 18 8 40 6 22 -2 38 0 35 4 -6 10 33 7 42 -4 5 -4 3 -5 -4 -1
-6 3 -14 2 -18 -3 -7 -12 40 -5 67 10 13 7 18 7 16 -2 -2 -6 3 -14 11 -17 9
-3 11 0 6 9 -5 8 2 5 15 -6 l24 -20 -18 30 c-19 30 -19 30 1 12 11 -9 23 -14
28 -10 4 5 5 3 2 -3 -4 -7 1 -15 11 -19 30 -14 41 -13 36 0 -3 7 0 16 7 21 7
4 10 3 6 -3 -4 -6 -1 -16 7 -22 11 -9 14 -8 12 3 0 8 4 15 9 15 6 0 9 -8 9
-19 -1 -11 3 -17 7 -14 5 3 9 12 9 20 0 8 5 12 11 9 6 -4 8 -14 5 -24 -4 -9 1
-7 12 7 17 22 17 22 34 2 11 -12 24 -17 34 -13 13 5 15 3 9 -8 -7 -11 -6 -12
6 -3 8 7 26 11 41 9 21 -2 25 0 20 13 -5 14 -4 15 10 2 9 -8 14 -18 12 -21 -2
-3 3 -6 11 -6 8 0 12 4 9 9 -3 5 6 7 20 4 14 -2 27 1 30 7 3 9 5 9 5 0 1 -6
-3 -15 -9 -18 -5 -3 -10 -11 -10 -17 0 -6 8 -1 19 10 17 21 48 32 37 14 -2 -4
0 -14 6 -22 8 -13 9 -12 5 2 -4 10 1 18 13 21 11 3 18 13 17 25 0 11 -6 18
-12 15 -7 -2 -12 3 -12 11 0 8 4 13 9 10 4 -3 8 2 8 10 0 10 9 16 25 16 l25 0
0 240 0 240 -1150 0 -1150 0 0 -240z m1830 -296 c0 -8 -5 -12 -10 -9 -6 4 -8
11 -5 16 9 14 15 11 15 -7z m173 -15 c-8 -8 -13 -7 -18 2 -5 8 -4 10 3 5 7 -4
12 -2 12 5 0 7 3 9 7 6 4 -4 2 -12 -4 -18z m247 -1 c0 -4 -4 -8 -9 -8 -6 0
-12 4 -15 8 -3 5 1 9 9 9 8 0 15 -4 15 -9z"/>
<path d="M2884 4682 c4 -3 14 -7 22 -8 9 -1 13 0 10 4 -4 3 -14 7 -22 8 -9 1
-13 0 -10 -4z"/>
<path d="M3035 4670 c-3 -5 -1 -10 4 -10 6 0 11 5 11 10 0 6 -2 10 -4 10 -3 0
-8 -4 -11 -10z"/>
<path d="M3086 4667 c3 -10 9 -15 12 -12 3 3 0 11 -7 18 -10 9 -11 8 -5 -6z"/>
<path d="M3253 4643 c0 -9 4 -10 14 -2 7 6 13 12 13 14 0 1 -6 2 -13 2 -8 0
-14 -6 -14 -14z"/>
<path d="M5905 4649 c-4 -6 -5 -12 -2 -15 2 -3 7 2 10 11 7 17 1 20 -8 4z"/>
<path d="M1500 4050 l0 -240 510 -1 c637 -1 594 0 602 -13 5 -8 8 -7 8 2 0 6
7 12 16 12 8 0 12 -5 9 -11 -4 -6 3 -5 14 3 18 11 23 11 31 -2 9 -13 10 -13
10 0 0 13 1 13 10 0 9 -13 10 -13 10 0 1 9 6 5 16 -10 l15 -25 -6 25 c-6 24
-5 24 9 6 16 -20 16 -20 16 0 0 16 2 17 10 4 5 -8 10 -11 10 -6 0 5 7 3 15 -4
13 -11 14 -10 10 2 -7 18 29 18 62 0 29 -16 33 -15 26 6 -5 14 -3 13 11 -3 9
-11 15 -15 14 -10 -2 6 2 11 7 12 6 1 9 -4 8 -11 -2 -6 6 -12 16 -12 11 0 17
4 15 8 -7 11 8 10 25 -1 9 -6 24 -5 39 0 20 8 23 7 19 -5 -4 -9 -1 -18 5 -22
7 -4 8 -3 4 4 -5 8 1 12 14 12 12 0 19 -4 16 -8 -3 -5 1 -9 8 -9 8 0 11 8 8
21 -5 19 -3 19 17 -4 12 -14 20 -20 17 -15 -7 16 31 38 40 23 4 -6 3 -8 -3 -5
-6 4 -13 1 -16 -7 -5 -11 0 -13 24 -6 16 5 31 5 34 1 8 -13 55 -10 49 3 -3 6
2 2 12 -9 16 -20 16 -20 11 5 -5 22 -5 23 7 8 15 -20 31 -25 20 -5 -6 9 -5 9
7 0 12 -10 18 -10 27 -1 9 9 12 8 12 -6 0 -9 -4 -14 -10 -11 -5 3 -10 1 -10
-4 0 -15 37 -8 60 12 21 17 28 9 9 -10 -7 -7 -6 -12 6 -17 9 -3 13 -2 10 4 -3
6 -1 10 5 10 6 0 8 5 4 12 -5 7 -3 8 5 4 7 -5 10 -14 7 -22 -3 -8 0 -11 10 -7
8 3 22 -1 31 -8 15 -13 15 -12 3 8 -8 12 -17 20 -20 18 -4 -2 -7 2 -7 10 0 13
3 13 17 0 9 -8 20 -12 25 -8 4 5 5 2 1 -4 -4 -8 -1 -13 9 -13 9 0 14 -4 11 -8
-3 -5 1 -9 9 -9 8 0 12 4 9 9 -3 4 6 8 20 8 14 0 28 5 31 10 5 8 11 8 19 1 7
-6 16 -8 19 -4 4 3 9 -2 13 -11 3 -9 14 -16 23 -16 14 0 14 2 1 10 -12 7 -12
11 -2 20 6 5 10 8 8 4 -5 -6 30 -44 40 -44 4 0 1 7 -6 15 -15 18 1 20 19 3 8
-8 6 1 -4 22 -10 21 -12 30 -4 23 18 -18 30 -16 22 4 -5 12 -3 14 7 8 8 -5 11
-4 6 3 -4 6 -13 9 -21 5 -11 -4 -13 -1 -9 11 4 10 18 16 35 16 l29 0 0 240 0
240 -1150 0 -1150 0 0 -240z m1584 -256 c3 -8 2 -12 -4 -9 -6 3 -10 10 -10 16
0 14 7 11 14 -7z m309 -39 c-3 -9 -8 -14 -10 -11 -3 3 -2 9 2 15 9 16 15 13 8
-4z m157 -15 c0 -5 -2 -10 -4 -10 -3 0 -8 5 -11 10 -3 6 -1 10 4 10 6 0 11 -4
11 -10z"/>
<path d="M4200 4050 l0 -240 478 -1 c262 0 512 0 555 0 55 1 77 -3 77 -12 0
-8 3 -7 9 2 8 12 12 12 24 2 12 -10 20 -10 37 1 17 11 22 11 30 -2 8 -13 10
-13 10 -1 0 11 4 9 15 -5 10 -12 13 -13 10 -3 -4 11 1 15 20 15 20 0 24 -4 20
-20 -6 -21 -6 -21 7 -1 7 11 19 21 27 23 12 3 12 0 1 -13 -11 -13 -10 -14 5
-9 14 6 16 4 10 -6 -5 -9 -4 -11 4 -6 6 4 9 11 6 16 -3 5 0 12 6 16 8 4 9 3 5
-5 -5 -8 1 -10 23 -6 18 3 31 1 31 -5 0 -5 4 -10 10 -10 5 0 6 8 3 17 -6 15
-5 16 9 3 9 -8 13 -19 10 -25 -3 -5 4 -2 15 8 19 17 21 17 34 0 13 -16 12 -17
-3 -4 -12 9 -18 10 -18 2 0 -6 5 -11 10 -11 6 0 13 0 18 0 4 0 7 4 7 9 0 5 4
13 8 18 5 4 7 3 5 -2 -2 -6 2 -12 7 -13 21 -7 35 -25 28 -36 -3 -6 3 -2 15 8
12 11 22 15 22 9 0 -5 15 -10 33 -10 17 0 26 2 19 5 -7 2 -17 13 -23 25 -8 19
-8 20 3 7 17 -19 38 -23 38 -8 1 7 7 2 15 -12 8 -14 15 -20 15 -15 0 6 5 3 10
-5 7 -10 10 -11 10 -2 0 9 7 8 28 -4 18 -11 21 -11 10 -1 -10 8 -18 20 -18 26
0 6 12 1 27 -13 l27 -25 18 21 c10 12 18 16 18 9 0 -9 5 -9 20 -1 16 9 22 8
26 -4 5 -12 11 -13 25 -6 15 8 17 7 13 -4 -4 -11 0 -13 17 -9 14 4 20 2 15 -5
-3 -6 -1 -14 5 -18 8 -4 9 -3 5 5 -4 6 0 14 8 17 9 3 13 10 10 15 -3 5 2 6 11
3 14 -6 14 -9 -2 -27 -18 -19 -18 -20 5 -6 20 12 24 12 32 -1 5 -8 10 -10 10
-5 0 6 -5 16 -12 23 -9 9 -4 9 20 0 22 -9 31 -17 27 -27 -5 -12 -3 -12 12 1
32 28 61 31 79 9 18 -20 34 -19 34 2 0 7 -4 6 -10 -3 -5 -8 -10 -10 -10 -4 0
6 7 17 16 24 8 8 14 9 13 4 -3 -19 1 -34 12 -34 5 0 7 5 3 12 -5 8 -2 9 9 5
16 -6 23 8 18 36 -1 5 3 6 9 2 5 -3 10 1 10 10 0 9 -4 14 -8 11 -5 -3 -9 1 -9
8 0 8 12 13 31 12 l31 -1 3 243 2 242 -1150 0 -1150 0 0 -240z m1578 -272 c-2
-5 -8 -9 -13 -9 -5 0 -11 4 -13 9 -1 5 4 9 13 9 9 0 14 -4 13 -9z m132 -10 c0
-6 -6 -5 -15 2 -8 7 -15 14 -15 16 0 2 7 1 15 -2 8 -4 15 -11 15 -16z m-100 2
c0 -5 -2 -10 -4 -10 -3 0 -8 5 -11 10 -3 6 -1 10 4 10 6 0 11 -4 11 -10z m180
-10 c0 -5 -4 -10 -10 -10 -5 0 -10 5 -10 10 0 6 5 10 10 10 6 0 10 -4 10 -10z
m280 -20 c0 -5 -2 -10 -4 -10 -3 0 -8 5 -11 10 -3 6 -1 10 4 10 6 0 11 -4 11
-10z"/>
<path d="M2833 3785 c0 -7 6 -12 14 -11 19 3 21 19 2 21 -9 2 -16 -3 -16 -10z"/>
<path d="M6050 3751 c0 -6 -9 -8 -20 -6 -11 2 -18 0 -15 -5 7 -12 38 -6 43 8
2 7 1 12 -2 12 -3 0 -6 -4 -6 -9z"/>
<path d="M3320 3740 c-9 -6 -10 -10 -3 -10 6 0 15 5 18 10 8 12 4 12 -15 0z"/>
<path d="M6443 3729 c-2 -23 3 -25 10 -4 4 8 3 16 -1 19 -4 3 -9 -4 -9 -15z"/>
<path d="M3606 3732 c-3 -5 1 -15 8 -21 11 -10 14 -9 12 3 -3 21 -13 29 -20
18z"/>
<path d="M6310 3722 c0 -5 7 -9 15 -9 8 0 12 4 9 9 -3 4 -9 8 -15 8 -5 0 -9
-4 -9 -8z"/>
<path d="M1500 3150 l0 -240 554 0 c376 0 557 -3 561 -10 5 -8 11 -7 21 1 11
9 14 8 14 -2 0 -10 3 -11 8 -3 8 13 60 13 80 1 6 -5 12 -4 12 1 0 11 76 10 87
-1 4 -5 -1 -5 -12 -1 -17 7 -18 6 -5 -8 8 -9 17 -12 18 -7 2 5 9 6 14 3 6 -4
8 -2 5 3 -4 6 0 13 8 17 8 3 17 0 21 -5 3 -6 15 -9 25 -6 11 3 17 1 13 -4 -3
-5 0 -9 6 -9 6 0 8 -5 4 -11 -4 -8 0 -8 15 0 11 7 21 16 21 21 0 6 5 10 10 10
7 0 7 -7 0 -22 -10 -21 -10 -21 11 2 16 18 21 20 16 6 -5 -13 -3 -17 8 -13 8
4 18 -1 23 -10 8 -14 10 -13 15 1 4 10 3 15 -3 11 -6 -3 -10 -1 -10 5 0 7 7 9
16 6 9 -3 18 -6 20 -6 3 0 3 -4 0 -8 -2 -4 4 -8 15 -8 22 0 24 7 7 26 -7 8 -4
7 8 -3 11 -9 27 -17 35 -17 12 0 11 2 -1 11 -13 9 -13 10 0 6 8 -2 14 -12 12
-21 -2 -9 3 -15 10 -14 7 2 12 -3 11 -9 -2 -10 3 -10 22 -1 14 6 25 16 25 21
0 5 -7 4 -15 -3 -9 -7 -18 -10 -21 -7 -3 3 4 10 15 17 17 9 22 8 27 -4 7 -19
32 -28 40 -14 4 6 3 8 -4 4 -6 -3 -14 -1 -18 5 -5 8 -3 9 6 4 10 -6 12 -3 7
11 -7 18 -6 18 6 2 8 -10 17 -15 20 -11 13 12 7 -13 -5 -27 -11 -12 -10 -12 4
-1 11 8 23 9 35 4 25 -13 48 -10 48 5 0 6 5 12 10 11 6 0 9 -8 7 -17 -2 -15
-1 -15 8 -2 9 13 11 13 19 0 5 -8 7 -18 5 -22 -9 -15 3 -8 17 9 10 11 10 14 2
9 -7 -4 -13 -2 -13 3 0 6 7 11 15 11 8 0 15 -4 15 -9 0 -5 7 -12 16 -15 13 -5
14 -4 6 7 -12 14 -6 27 12 27 6 0 4 -5 -4 -11 -11 -7 -7 -9 18 -5 17 2 32 0
32 -5 0 -6 -7 -9 -16 -7 -10 2 -18 -3 -20 -10 -1 -7 0 -8 3 -2 2 5 9 8 14 4
17 -10 50 -13 44 -3 -4 5 -11 6 -17 3 -7 -4 -8 -2 -4 4 4 6 13 9 20 6 8 -3 17
0 21 5 3 6 11 9 16 5 5 -3 18 0 27 8 15 12 16 11 3 -4 -15 -21 -2 -24 19 -5
13 10 13 10 2 -3 -12 -14 -18 -39 -5 -27 3 4 13 1 21 -6 10 -8 13 -8 9 -1 -4
7 0 15 9 18 21 8 26 8 20 -3 -3 -5 1 -12 10 -15 8 -3 12 -2 9 4 -5 9 6 14 26
12 3 0 6 15 7 34 2 21 -2 34 -9 34 -7 0 -9 3 -5 8 8 7 13 9 46 11 19 1 20 8
20 241 l0 240 -1150 0 -1150 0 0 -240z m1677 -282 c-3 -8 -6 -5 -6 6 -1 11 2
17 5 13 3 -3 4 -12 1 -19z m177 -13 c3 -9 -2 -12 -16 -10 -32 7 -40 20 -13 21
13 1 26 -4 29 -11z m371 -23 c-3 -3 -11 0 -18 7 -9 10 -8 11 6 5 10 -3 15 -9
12 -12z"/>
<path d="M4200 3150 l0 -240 523 -1 c287 -1 541 -1 565 -1 23 1 42 -4 42 -10
0 -7 5 -6 15 2 12 10 15 10 15 -1 0 -11 2 -11 10 1 8 12 11 13 19 1 7 -11 9
-11 14 0 4 10 6 10 6 2 1 -7 6 -13 12 -13 5 0 7 6 3 13 -5 8 -3 8 9 -2 9 -7
14 -17 11 -22 -9 -16 3 -10 17 8 10 11 10 14 2 9 -7 -4 -13 -3 -13 2 0 17 69
6 92 -14 19 -16 20 -16 9 -1 -8 9 -11 20 -7 24 3 3 6 2 6 -4 0 -10 26 -21 41
-19 3 1 13 -5 21 -11 12 -10 15 -10 15 2 0 8 -5 11 -11 8 -6 -3 -7 -2 -3 2 13
15 38 14 44 -1 3 -9 13 -12 25 -8 15 5 19 3 13 -7 -7 -12 -5 -12 6 -1 12 11
12 14 -1 22 -11 7 -11 10 -2 10 7 0 15 -7 18 -15 7 -18 25 -20 20 -2 -1 6 -1
9 1 4 3 -4 10 -4 15 -1 7 4 8 2 4 -4 -7 -12 4 -16 37 -13 9 1 17 -2 17 -7 0
-5 7 -9 16 -9 11 0 9 6 -8 21 -13 12 -18 17 -11 13 6 -5 18 -5 24 -1 8 4 9 3
5 -4 -5 -8 1 -12 17 -12 14 0 31 -10 41 -22 9 -13 13 -16 10 -6 -4 12 0 16 13
14 10 -2 26 1 36 6 11 5 17 5 17 -2 0 -5 -5 -10 -12 -10 -6 0 -8 -3 -5 -7 4
-3 17 2 29 13 12 10 18 13 14 7 -4 -8 -1 -13 9 -13 9 0 14 -3 12 -7 -3 -5 21
-8 54 -9 42 0 59 4 59 13 0 7 4 13 10 13 5 0 7 -6 4 -14 -3 -8 0 -17 6 -21 6
-3 10 -3 9 2 -3 20 2 23 16 9 9 -8 23 -12 32 -9 12 5 14 3 8 -8 -7 -12 -6 -12
7 -1 8 7 24 9 33 5 11 -4 16 -2 12 3 -3 6 9 8 31 6 20 -3 40 -10 44 -16 5 -8
11 -7 20 3 7 8 8 11 2 8 -6 -3 -11 1 -11 9 0 13 2 13 15 0 13 -13 13 -17 1
-33 -13 -16 -12 -17 3 -5 9 8 21 11 27 8 5 -3 11 1 14 9 4 9 1 12 -9 8 -7 -3
-14 -1 -14 5 0 6 8 9 18 7 9 -2 21 -4 25 -4 5 -1 6 -5 3 -10 -3 -5 2 -15 12
-22 15 -13 16 -12 3 4 -7 9 -10 17 -6 17 5 0 0 8 -9 19 -16 18 -16 18 11 14
27 -5 27 -5 8 10 -10 8 -26 12 -34 9 -9 -4 -8 2 5 15 10 11 21 20 24 20 3 1
15 1 28 2 l22 1 0 240 0 240 -1150 0 -1150 0 0 -240z m1410 -249 c0 -6 -4 -13
-10 -16 -5 -3 -10 1 -10 9 0 9 5 16 10 16 6 0 10 -4 10 -9z m335 -20 c3 -5 2
-12 -3 -15 -5 -3 -9 1 -9 9 0 17 3 19 12 6z m85 -21 c0 -5 -2 -10 -4 -10 -3 0
-8 5 -11 10 -3 6 -1 10 4 10 6 0 11 -4 11 -10z m61 -8 c8 2 18 8 22 13 5 6 7
4 4 -5 -2 -9 -16 -15 -33 -16 -35 -1 -46 4 -38 17 4 6 10 6 19 -1 7 -6 19 -9
26 -8z m119 -7 c0 -12 -19 -12 -23 0 -4 9 -1 12 9 8 7 -3 14 -7 14 -8z m17 -7
c-3 -8 -6 -5 -6 6 -1 11 2 17 5 13 3 -3 4 -12 1 -19z"/>
<path d="M2760 2891 c0 -6 4 -13 10 -16 6 -3 7 1 4 9 -7 18 -14 21 -14 7z"/>
<path d="M2780 2896 c0 -2 8 -10 18 -17 15 -13 16 -12 3 4 -13 16 -21 21 -21
13z"/>
<path d="M2871 2884 c0 -11 3 -14 6 -6 3 7 2 16 -1 19 -3 4 -6 -2 -5 -13z"/>
<path d="M6446 2878 c3 -5 10 -6 15 -3 13 9 11 12 -6 12 -8 0 -12 -4 -9 -9z"/>
<path d="M3576 2833 c-13 -13 -5 -21 19 -19 14 0 25 2 25 3 0 7 -38 21 -44 16z"/>
<path d="M6310 2809 c0 -5 5 -7 10 -4 6 3 10 8 10 11 0 2 -4 4 -10 4 -5 0 -10
-5 -10 -11z"/>
</g>
</svg>
